<svg width="58" height="20" viewBox="0 0 58 20" fill="none" xmlns="http://www.w3.org/2000/svg">
<rect x="0.5" y="0.5" width="57" height="19" rx="9.5" stroke="black"/>
<path d="M15.5605 14H9.18555V12.8223L13.293 6.93359H9.29688V5.43359H15.4492V6.60547L11.3477 12.5H15.5605V14ZM16.2051 11.5156V10.0508H19.3516V11.5156H16.2051ZM26.0371 14L25.416 11.9609H22.293L21.6719 14H19.7148L22.7383 5.39844H24.959L27.9941 14H26.0371ZM24.9824 10.4375L24.3613 8.44531C24.3223 8.3125 24.2695 8.14258 24.2031 7.93555C24.1406 7.72461 24.0762 7.51172 24.0098 7.29688C23.9473 7.07812 23.8965 6.88867 23.8574 6.72852C23.8184 6.88867 23.7637 7.08789 23.6934 7.32617C23.627 7.56055 23.5625 7.7832 23.5 7.99414C23.4375 8.20508 23.3926 8.35547 23.3652 8.44531L22.75 10.4375H24.9824Z" fill="black"/>
<path fill-rule="evenodd" clip-rule="evenodd" d="M40 8H43V7H40V8 ZM45 10.5H38V9.5H45V10.5 ZM46 13H37V12H46V13Z" fill="black"/>
</svg>
