<svg width="58" height="20" viewBox="0 0 58 20" fill="none" xmlns="http://www.w3.org/2000/svg">
<rect x="0.5" y="0.5" width="57" height="19" rx="9.5" stroke="white"/>
<path d="M15.2207 14L14.5996 11.9609H11.4766L10.8555 14H8.89844L11.9219 5.39844H14.1426L17.1777 14H15.2207ZM14.166 10.4375L13.5449 8.44531C13.5059 8.3125 13.4531 8.14258 13.3867 7.93555C13.3242 7.72461 13.2598 7.51172 13.1934 7.29688C13.1309 7.07812 13.0801 6.88867 13.041 6.72852C13.002 6.88867 12.9473 7.08789 12.877 7.32617C12.8105 7.56055 12.7461 7.7832 12.6836 7.99414C12.6211 8.20508 12.5762 8.35547 12.5488 8.44531L11.9336 10.4375H14.166ZM17.541 11.5156V10.0508H20.6875V11.5156H17.541ZM27.7129 14H21.3379V12.8223L25.4453 6.93359H21.4492V5.43359H27.6016V6.60547L23.5 12.5H27.7129V14Z" fill="white"/>
<path fill-rule="evenodd" clip-rule="evenodd" d="M46 8H37V7H46V8ZM45 10.5H38V9.5H45V10.5ZM40 13H43V12H40V13Z" fill="white"/>
</svg>